solid OpenSCAD_Model
  facet normal -1 0 0
    outer loop
      vertex -25.5 46.5 0
      vertex -25.5 0 2
      vertex -25.5 46.5 40
    endloop
  endfacet
  facet normal -1 0 0
    outer loop
      vertex -25.5 -3 0
      vertex -25.5 0 2
      vertex -25.5 46.5 0
    endloop
  endfacet
  facet normal -1 -0 0
    outer loop
      vertex -25.5 0 2
      vertex -25.5 -3 0
      vertex -25.5 -3 2
    endloop
  endfacet
  facet normal -1 -0 0
    outer loop
      vertex -25.5 46.5 40
      vertex -25.5 0 2
      vertex -25.5 0 40
    endloop
  endfacet
  facet normal 0 0 1
    outer loop
      vertex 25.5 46.5 40
      vertex 21.5 42.5 40
      vertex 25.5 0 40
    endloop
  endfacet
  facet normal 0 0 1
    outer loop
      vertex 25.5 46.5 40
      vertex -21.5 42.5 40
      vertex 21.5 42.5 40
    endloop
  endfacet
  facet normal -0 0 1
    outer loop
      vertex -25.5 46.5 40
      vertex -21.5 42.5 40
      vertex 25.5 46.5 40
    endloop
  endfacet
  facet normal 0 0 1
    outer loop
      vertex -25.5 0 40
      vertex -21.5 42.5 40
      vertex -25.5 46.5 40
    endloop
  endfacet
  facet normal 0 0 1
    outer loop
      vertex -21.5 42.5 40
      vertex -25.5 0 40
      vertex -21.5 0 40
    endloop
  endfacet
  facet normal 0 0 1
    outer loop
      vertex 25.5 0 40
      vertex 21.5 42.5 40
      vertex 21.5 0 40
    endloop
  endfacet
  facet normal 1 0 0
    outer loop
      vertex 25.5 0 2
      vertex 25.5 46.5 40
      vertex 25.5 0 40
    endloop
  endfacet
  facet normal 1 0 0
    outer loop
      vertex 25.5 46.5 40
      vertex 25.5 0 2
      vertex 25.5 46.5 0
    endloop
  endfacet
  facet normal 1 0 0
    outer loop
      vertex 25.5 -3 0
      vertex 25.5 0 2
      vertex 25.5 -3 2
    endloop
  endfacet
  facet normal 1 0 0
    outer loop
      vertex 25.5 0 2
      vertex 25.5 -3 0
      vertex 25.5 46.5 0
    endloop
  endfacet
  facet normal 0 1 -0
    outer loop
      vertex 25.5 46.5 0
      vertex -25.5 46.5 40
      vertex 25.5 46.5 40
    endloop
  endfacet
  facet normal 0 1 0
    outer loop
      vertex -25.5 46.5 40
      vertex 25.5 46.5 0
      vertex -25.5 46.5 0
    endloop
  endfacet
  facet normal 0 0 -1
    outer loop
      vertex -21.5 18 0
      vertex -3 24 0
      vertex -3 18 0
    endloop
  endfacet
  facet normal -0 0 -1
    outer loop
      vertex -3 24 0
      vertex -21.5 18 0
      vertex -21.5 24 0
    endloop
  endfacet
  facet normal 0 0 -1
    outer loop
      vertex 0.623539 1.50536 0
      vertex 3 3 0
      vertex 1.15215 1.15215 0
    endloop
  endfacet
  facet normal 0 0 -1
    outer loop
      vertex 3 18 0
      vertex 1.50536 20.3765 0
      vertex 1.62939 21 0
    endloop
  endfacet
  facet normal 0 0 -1
    outer loop
      vertex 0 1.62939 0
      vertex 3 3 0
      vertex 0.623539 1.50536 0
    endloop
  endfacet
  facet normal 0 0 -1
    outer loop
      vertex 3 18 0
      vertex 1.15215 19.8479 0
      vertex 1.50536 20.3765 0
    endloop
  endfacet
  facet normal 0 0 -1
    outer loop
      vertex 3 3 0
      vertex -3 3 0
      vertex 3 18 0
    endloop
  endfacet
  facet normal 0 0 -1
    outer loop
      vertex 3 18 0
      vertex 0.623539 19.4946 0
      vertex 1.15215 19.8479 0
    endloop
  endfacet
  facet normal -0 0 -1
    outer loop
      vertex 3 3 0
      vertex 0 1.62939 0
      vertex -3 3 0
    endloop
  endfacet
  facet normal 0 0 -1
    outer loop
      vertex -3 18 0
      vertex 3 18 0
      vertex -3 3 0
    endloop
  endfacet
  facet normal 0 0 -1
    outer loop
      vertex -3 3 0
      vertex 0 1.62939 0
      vertex -0.623539 1.50536 0
    endloop
  endfacet
  facet normal 0 -0 -1
    outer loop
      vertex 0 19.3706 0
      vertex 3 18 0
      vertex -3 18 0
    endloop
  endfacet
  facet normal 0 0 -1
    outer loop
      vertex -3 3 0
      vertex -0.623539 1.50536 0
      vertex -1.15215 1.15215 0
    endloop
  endfacet
  facet normal 0 0 -1
    outer loop
      vertex 3 18 0
      vertex 0 19.3706 0
      vertex 0.623539 19.4946 0
    endloop
  endfacet
  facet normal 0 0 -1
    outer loop
      vertex -3 3 0
      vertex -1.15215 1.15215 0
      vertex -1.50536 0.623539 0
    endloop
  endfacet
  facet normal -0 0 -1
    outer loop
      vertex 0 19.3706 0
      vertex -3 18 0
      vertex -0.623539 19.4946 0
    endloop
  endfacet
  facet normal 0 0 -1
    outer loop
      vertex -3 3 0
      vertex -1.50536 0.623539 0
      vertex -1.62939 0 0
    endloop
  endfacet
  facet normal -0 0 -1
    outer loop
      vertex -0.623539 19.4946 0
      vertex -3 18 0
      vertex -1.15215 19.8479 0
    endloop
  endfacet
  facet normal 0 0 -1
    outer loop
      vertex 3 18 0
      vertex 21.5 24 0
      vertex 21.5 18 0
    endloop
  endfacet
  facet normal -0 0 -1
    outer loop
      vertex 21.5 24 0
      vertex 3 18 0
      vertex 3 24 0
    endloop
  endfacet
  facet normal 0 0 -1
    outer loop
      vertex 21.5 18 0
      vertex 25.5 -3 0
      vertex 21.5 3 0
    endloop
  endfacet
  facet normal 0 0 -1
    outer loop
      vertex 1.50536 -0.623539 0
      vertex 21.5 3 0
      vertex 25.5 -3 0
    endloop
  endfacet
  facet normal 0 0 -1
    outer loop
      vertex 1.15215 1.15215 0
      vertex 3 3 0
      vertex 1.50536 0.623539 0
    endloop
  endfacet
  facet normal 0 0 -1
    outer loop
      vertex 3 18 0
      vertex 1.62939 21 0
      vertex 3 24 0
    endloop
  endfacet
  facet normal 0 0 -1
    outer loop
      vertex 1.50536 0.623539 0
      vertex 3 3 0
      vertex 1.62939 0 0
    endloop
  endfacet
  facet normal -0 0 -1
    outer loop
      vertex 21.5 3 0
      vertex 1.50536 -0.623539 0
      vertex 3 3 0
    endloop
  endfacet
  facet normal 0 0 -1
    outer loop
      vertex 3 3 0
      vertex 1.50536 -0.623539 0
      vertex 1.62939 0 0
    endloop
  endfacet
  facet normal 0 0 -1
    outer loop
      vertex 25.5 -3 0
      vertex 1.15215 -1.15215 0
      vertex 1.50536 -0.623539 0
    endloop
  endfacet
  facet normal 0 0 -1
    outer loop
      vertex 25.5 -3 0
      vertex 0.623539 -1.50536 0
      vertex 1.15215 -1.15215 0
    endloop
  endfacet
  facet normal 0 0 -1
    outer loop
      vertex 25.5 -3 0
      vertex 0 -1.62939 0
      vertex 0.623539 -1.50536 0
    endloop
  endfacet
  facet normal -0 0 -1
    outer loop
      vertex -1.15215 19.8479 0
      vertex -3 18 0
      vertex -1.50536 20.3765 0
    endloop
  endfacet
  facet normal 0 0 -1
    outer loop
      vertex -1.50536 -0.623539 0
      vertex -3 3 0
      vertex -1.62939 0 0
    endloop
  endfacet
  facet normal 0 0 -1
    outer loop
      vertex -1.50536 -0.623539 0
      vertex -21.5 3 0
      vertex -3 3 0
    endloop
  endfacet
  facet normal 0 0 -1
    outer loop
      vertex -25.5 -3 0
      vertex -1.50536 -0.623539 0
      vertex -1.15215 -1.15215 0
    endloop
  endfacet
  facet normal 0 0 -1
    outer loop
      vertex -25.5 -3 0
      vertex -1.15215 -1.15215 0
      vertex -0.623539 -1.50536 0
    endloop
  endfacet
  facet normal 0 0 -1
    outer loop
      vertex -25.5 -3 0
      vertex -21.5 18 0
      vertex -21.5 3 0
    endloop
  endfacet
  facet normal -0 0 -1
    outer loop
      vertex -21.5 18 0
      vertex -25.5 -3 0
      vertex -21.5 24 0
    endloop
  endfacet
  facet normal -0 0 -1
    outer loop
      vertex -21.5 24 0
      vertex -25.5 -3 0
      vertex -25.5 46.5 0
    endloop
  endfacet
  facet normal -0 0 -1
    outer loop
      vertex -1.50536 -0.623539 0
      vertex -25.5 -3 0
      vertex -21.5 3 0
    endloop
  endfacet
  facet normal -0 0 -1
    outer loop
      vertex 0 -1.62939 0
      vertex -25.5 -3 0
      vertex -0.623539 -1.50536 0
    endloop
  endfacet
  facet normal 0 0 -1
    outer loop
      vertex -25.5 -3 0
      vertex 0 -1.62939 0
      vertex 25.5 -3 0
    endloop
  endfacet
  facet normal 0 0 -1
    outer loop
      vertex 21.5 24 0
      vertex 25.5 -3 0
      vertex 21.5 18 0
    endloop
  endfacet
  facet normal 0 0 -1
    outer loop
      vertex 25.5 -3 0
      vertex 21.5 24 0
      vertex 25.5 46.5 0
    endloop
  endfacet
  facet normal 0 0 -1
    outer loop
      vertex 21.5 42.5 0
      vertex 25.5 46.5 0
      vertex 21.5 24 0
    endloop
  endfacet
  facet normal 0 0 -1
    outer loop
      vertex 3 42.5 0
      vertex 25.5 46.5 0
      vertex 21.5 42.5 0
    endloop
  endfacet
  facet normal 0 0 -1
    outer loop
      vertex 1.50536 21.6235 0
      vertex 3 24 0
      vertex 1.62939 21 0
    endloop
  endfacet
  facet normal 0 0 -1
    outer loop
      vertex 1.15215 22.1521 0
      vertex 3 24 0
      vertex 1.50536 21.6235 0
    endloop
  endfacet
  facet normal 0 0 -1
    outer loop
      vertex 0.623539 22.5054 0
      vertex 3 24 0
      vertex 1.15215 22.1521 0
    endloop
  endfacet
  facet normal 0 0 -1
    outer loop
      vertex 0 22.6294 0
      vertex 3 24 0
      vertex 0.623539 22.5054 0
    endloop
  endfacet
  facet normal -0 0 -1
    outer loop
      vertex 3 24 0
      vertex 0 22.6294 0
      vertex -3 24 0
    endloop
  endfacet
  facet normal 0 0 -1
    outer loop
      vertex -3 24 0
      vertex 0 22.6294 0
      vertex -0.623539 22.5054 0
    endloop
  endfacet
  facet normal 0 0 -1
    outer loop
      vertex -3 24 0
      vertex -0.623539 22.5054 0
      vertex -1.15215 22.1521 0
    endloop
  endfacet
  facet normal 0 0 -1
    outer loop
      vertex -3 24 0
      vertex -1.15215 22.1521 0
      vertex -1.50536 21.6235 0
    endloop
  endfacet
  facet normal -0 0 -1
    outer loop
      vertex -1.50536 20.3765 0
      vertex -3 18 0
      vertex -1.62939 21 0
    endloop
  endfacet
  facet normal 0 0 -1
    outer loop
      vertex -3 24 0
      vertex -1.62939 21 0
      vertex -3 18 0
    endloop
  endfacet
  facet normal 0 0 -1
    outer loop
      vertex -1.62939 21 0
      vertex -3 24 0
      vertex -1.50536 21.6235 0
    endloop
  endfacet
  facet normal 0 0 -1
    outer loop
      vertex 3 24 0
      vertex -3 24 0
      vertex 3 42.5 0
    endloop
  endfacet
  facet normal 0 0 -1
    outer loop
      vertex -3 42.5 0
      vertex 3 42.5 0
      vertex -3 24 0
    endloop
  endfacet
  facet normal 0 0 -1
    outer loop
      vertex -3 42.5 0
      vertex 25.5 46.5 0
      vertex 3 42.5 0
    endloop
  endfacet
  facet normal 0 0 -1
    outer loop
      vertex -25.5 46.5 0
      vertex -3 42.5 0
      vertex -21.5 42.5 0
    endloop
  endfacet
  facet normal 0 0 -1
    outer loop
      vertex -3 42.5 0
      vertex -25.5 46.5 0
      vertex 25.5 46.5 0
    endloop
  endfacet
  facet normal 0 0 -1
    outer loop
      vertex -21.5 24 0
      vertex -25.5 46.5 0
      vertex -21.5 42.5 0
    endloop
  endfacet
  facet normal 1 -0 0
    outer loop
      vertex -21.5 22.4142 25
      vertex -21.5 42.5 0
      vertex -21.5 42.5 40
    endloop
  endfacet
  facet normal 1 0 0
    outer loop
      vertex -21.5 42.5 0
      vertex -21.5 22.4142 25
      vertex -21.5 24 2
    endloop
  endfacet
  facet normal 1 -0 0
    outer loop
      vertex -21.5 0 40
      vertex -21.5 22.4142 25
      vertex -21.5 42.5 40
    endloop
  endfacet
  facet normal 1 0 0
    outer loop
      vertex -21.5 19.5858 25
      vertex -21.5 18 2
      vertex -21.5 19.5858 2
    endloop
  endfacet
  facet normal 1 0 0
    outer loop
      vertex -21.5 18 2
      vertex -21.5 3 2
      vertex -21.5 18 0
    endloop
  endfacet
  facet normal 1 0 0
    outer loop
      vertex -21.5 19.5858 25
      vertex -21.5 3 2
      vertex -21.5 18 2
    endloop
  endfacet
  facet normal 1 0 0
    outer loop
      vertex -21.5 19.5858 25
      vertex -21.5 1.41421 25
      vertex -21.5 3 2
    endloop
  endfacet
  facet normal 1 0 0
    outer loop
      vertex -21.5 22.4142 25
      vertex -21.5 0 40
      vertex -21.5 19.5858 25
    endloop
  endfacet
  facet normal 1 0 0
    outer loop
      vertex -21.5 19.5858 25
      vertex -21.5 0 40
      vertex -21.5 1.41421 25
    endloop
  endfacet
  facet normal 1 0 0
    outer loop
      vertex -21.5 1.41421 25
      vertex -21.5 0 40
      vertex -21.5 0 25
    endloop
  endfacet
  facet normal 1 0 0
    outer loop
      vertex -21.5 42.5 0
      vertex -21.5 24 2
      vertex -21.5 24 0
    endloop
  endfacet
  facet normal 1 0 0
    outer loop
      vertex -21.5 24 2
      vertex -21.5 22.4142 25
      vertex -21.5 22.4142 2
    endloop
  endfacet
  facet normal 1 0 0
    outer loop
      vertex -21.5 18 0
      vertex -21.5 3 2
      vertex -21.5 3 0
    endloop
  endfacet
  facet normal 1 0 0
    outer loop
      vertex -21.5 3 2
      vertex -21.5 1.41421 25
      vertex -21.5 1.41421 2
    endloop
  endfacet
  facet normal -1 0 0
    outer loop
      vertex 21.5 18 0
      vertex 21.5 3 0
      vertex 21.5 18 2
    endloop
  endfacet
  facet normal -1 0 0
    outer loop
      vertex 21.5 19.5858 2
      vertex 21.5 18 2
      vertex 21.5 19.5858 25
    endloop
  endfacet
  facet normal -1 0 0
    outer loop
      vertex 21.5 24 2
      vertex 21.5 42.5 0
      vertex 21.5 24 0
    endloop
  endfacet
  facet normal -1 0 0
    outer loop
      vertex 21.5 22.4142 25
      vertex 21.5 42.5 0
      vertex 21.5 24 2
    endloop
  endfacet
  facet normal -1 0 0
    outer loop
      vertex 21.5 22.4142 25
      vertex 21.5 24 2
      vertex 21.5 22.4142 2
    endloop
  endfacet
  facet normal -1 0 0
    outer loop
      vertex 21.5 42.5 0
      vertex 21.5 22.4142 25
      vertex 21.5 42.5 40
    endloop
  endfacet
  facet normal -1 0 0
    outer loop
      vertex 21.5 0 40
      vertex 21.5 22.4142 25
      vertex 21.5 19.5858 25
    endloop
  endfacet
  facet normal -1 0 0
    outer loop
      vertex 21.5 3 2
      vertex 21.5 18 2
      vertex 21.5 3 0
    endloop
  endfacet
  facet normal -1 0 0
    outer loop
      vertex 21.5 18 2
      vertex 21.5 3 2
      vertex 21.5 19.5858 25
    endloop
  endfacet
  facet normal -1 0 0
    outer loop
      vertex 21.5 1.41421 25
      vertex 21.5 3 2
      vertex 21.5 1.41421 2
    endloop
  endfacet
  facet normal -1 0 0
    outer loop
      vertex 21.5 3 2
      vertex 21.5 1.41421 25
      vertex 21.5 19.5858 25
    endloop
  endfacet
  facet normal -1 0 0
    outer loop
      vertex 21.5 0 40
      vertex 21.5 19.5858 25
      vertex 21.5 1.41421 25
    endloop
  endfacet
  facet normal -1 0 0
    outer loop
      vertex 21.5 0 40
      vertex 21.5 1.41421 25
      vertex 21.5 0 25
    endloop
  endfacet
  facet normal -1 0 0
    outer loop
      vertex 21.5 22.4142 25
      vertex 21.5 0 40
      vertex 21.5 42.5 40
    endloop
  endfacet
  facet normal 0 -1 0
    outer loop
      vertex -21.5 42.5 40
      vertex -1.41421 42.5 25
      vertex 21.5 42.5 40
    endloop
  endfacet
  facet normal 0 -1 0
    outer loop
      vertex -21.5 42.5 0
      vertex -1.41421 42.5 25
      vertex -21.5 42.5 40
    endloop
  endfacet
  facet normal 0 -1 0
    outer loop
      vertex -1.41421 42.5 25
      vertex -21.5 42.5 0
      vertex -3 42.5 2
    endloop
  endfacet
  facet normal 0 -1 -0
    outer loop
      vertex -3 42.5 2
      vertex -21.5 42.5 0
      vertex -3 42.5 0
    endloop
  endfacet
  facet normal 0 -1 0
    outer loop
      vertex 1.41421 42.5 25
      vertex 21.5 42.5 40
      vertex -1.41421 42.5 25
    endloop
  endfacet
  facet normal 0 -1 0
    outer loop
      vertex 3 42.5 2
      vertex 1.41421 42.5 25
      vertex 1.41421 42.5 2
    endloop
  endfacet
  facet normal 0 -1 0
    outer loop
      vertex 21.5 42.5 0
      vertex 1.41421 42.5 25
      vertex 3 42.5 2
    endloop
  endfacet
  facet normal 0 -1 0
    outer loop
      vertex 21.5 42.5 0
      vertex 3 42.5 2
      vertex 3 42.5 0
    endloop
  endfacet
  facet normal 0 -1 0
    outer loop
      vertex 1.41421 42.5 25
      vertex 21.5 42.5 0
      vertex 21.5 42.5 40
    endloop
  endfacet
  facet normal 0 -1 -0
    outer loop
      vertex -1.41421 42.5 25
      vertex -3 42.5 2
      vertex -1.41421 42.5 2
    endloop
  endfacet
  facet normal 0.707106 0.707107 -0
    outer loop
      vertex -20.0858 0 2
      vertex -21.5 1.41421 25
      vertex -20.0858 0 25
    endloop
  endfacet
  facet normal 0.707106 0.707107 0
    outer loop
      vertex -21.5 1.41421 25
      vertex -20.0858 0 2
      vertex -21.5 1.41421 2
    endloop
  endfacet
  facet normal -0.707106 0.707107 0
    outer loop
      vertex 21.5 1.41421 2
      vertex 20.0858 0 25
      vertex 21.5 1.41421 25
    endloop
  endfacet
  facet normal -0.707106 0.707107 0
    outer loop
      vertex 20.0858 0 25
      vertex 21.5 1.41421 2
      vertex 20.0858 0 2
    endloop
  endfacet
  facet normal 0.707106 0.707107 -0
    outer loop
      vertex -20.0858 21 2
      vertex -21.5 22.4142 25
      vertex -20.0858 21 25
    endloop
  endfacet
  facet normal 0.707106 0.707107 0
    outer loop
      vertex -21.5 22.4142 25
      vertex -20.0858 21 2
      vertex -21.5 22.4142 2
    endloop
  endfacet
  facet normal 0.707107 -0.707107 0
    outer loop
      vertex -21.5 19.5858 25
      vertex -20.0858 21 2
      vertex -20.0858 21 25
    endloop
  endfacet
  facet normal 0.707107 -0.707107 0
    outer loop
      vertex -20.0858 21 2
      vertex -21.5 19.5858 25
      vertex -21.5 19.5858 2
    endloop
  endfacet
  facet normal -0.707107 -0.707107 0
    outer loop
      vertex 21.5 19.5858 2
      vertex 20.0858 21 25
      vertex 20.0858 21 2
    endloop
  endfacet
  facet normal -0.707107 -0.707107 0
    outer loop
      vertex 20.0858 21 25
      vertex 21.5 19.5858 2
      vertex 21.5 19.5858 25
    endloop
  endfacet
  facet normal -0.707106 0.707107 0
    outer loop
      vertex 21.5 22.4142 2
      vertex 20.0858 21 25
      vertex 21.5 22.4142 25
    endloop
  endfacet
  facet normal -0.707106 0.707107 0
    outer loop
      vertex 20.0858 21 25
      vertex 21.5 22.4142 2
      vertex 20.0858 21 2
    endloop
  endfacet
  facet normal -0.707107 -0.707106 0
    outer loop
      vertex 0 41.0858 2
      vertex -1.41421 42.5 25
      vertex -1.41421 42.5 2
    endloop
  endfacet
  facet normal -0.707107 -0.707106 0
    outer loop
      vertex -1.41421 42.5 25
      vertex 0 41.0858 2
      vertex 0 41.0858 25
    endloop
  endfacet
  facet normal 0.707107 -0.707106 0
    outer loop
      vertex 0 41.0858 25
      vertex 1.41421 42.5 2
      vertex 1.41421 42.5 25
    endloop
  endfacet
  facet normal 0.707107 -0.707106 0
    outer loop
      vertex 1.41421 42.5 2
      vertex 0 41.0858 25
      vertex 0 41.0858 2
    endloop
  endfacet
  facet normal 0 0 1
    outer loop
      vertex -20.0858 21 25
      vertex -21.5 22.4142 25
      vertex -21.5 19.5858 25
    endloop
  endfacet
  facet normal 0 0 1
    outer loop
      vertex -20.0858 0 25
      vertex -21.5 1.41421 25
      vertex -21.5 0 25
    endloop
  endfacet
  facet normal 0 -0 1
    outer loop
      vertex 0 41.0858 25
      vertex 1.41421 42.5 25
      vertex -1.41421 42.5 25
    endloop
  endfacet
  facet normal 0 -0 1
    outer loop
      vertex 21.5 19.5858 25
      vertex 21.5 22.4142 25
      vertex 20.0858 21 25
    endloop
  endfacet
  facet normal 0 -0 1
    outer loop
      vertex 21.5 0 25
      vertex 21.5 1.41421 25
      vertex 20.0858 0 25
    endloop
  endfacet
  facet normal 0 -1 0
    outer loop
      vertex -25.5 0 40
      vertex -21.5 0 25
      vertex -21.5 0 40
    endloop
  endfacet
  facet normal 0 -1 0
    outer loop
      vertex -25.5 0 2
      vertex -21.5 0 25
      vertex -25.5 0 40
    endloop
  endfacet
  facet normal 0 -1 0
    outer loop
      vertex -20.0858 0 2
      vertex -21.5 0 25
      vertex -25.5 0 2
    endloop
  endfacet
  facet normal 0 -1 0
    outer loop
      vertex -21.5 0 25
      vertex -20.0858 0 2
      vertex -20.0858 0 25
    endloop
  endfacet
  facet normal 0 -1 0
    outer loop
      vertex 20.0858 0 25
      vertex 20.0858 0 2
      vertex 21.5 0 25
    endloop
  endfacet
  facet normal 0 -1 0
    outer loop
      vertex 21.5 0 25
      vertex 25.5 0 40
      vertex 21.5 0 40
    endloop
  endfacet
  facet normal 0 -1 0
    outer loop
      vertex 25.5 0 2
      vertex 21.5 0 25
      vertex 20.0858 0 2
    endloop
  endfacet
  facet normal 0 -1 0
    outer loop
      vertex 21.5 0 25
      vertex 25.5 0 2
      vertex 25.5 0 40
    endloop
  endfacet
  facet normal -0.980785 -0.19509 0
    outer loop
      vertex 1.62939 0 0
      vertex 1.50536 0.623539 2
      vertex 1.50536 0.623539 0
    endloop
  endfacet
  facet normal -0.980785 -0.19509 0
    outer loop
      vertex 1.50536 0.623539 2
      vertex 1.62939 0 0
      vertex 1.62939 0 2
    endloop
  endfacet
  facet normal 0.980785 -0.19509 0
    outer loop
      vertex -1.62939 0 2
      vertex -1.50536 0.623539 0
      vertex -1.50536 0.623539 2
    endloop
  endfacet
  facet normal 0.980785 -0.19509 0
    outer loop
      vertex -1.50536 0.623539 0
      vertex -1.62939 0 2
      vertex -1.62939 0 0
    endloop
  endfacet
  facet normal 0.980785 0.19509 0
    outer loop
      vertex -1.50536 -0.623539 2
      vertex -1.62939 0 0
      vertex -1.62939 0 2
    endloop
  endfacet
  facet normal 0.980785 0.19509 0
    outer loop
      vertex -1.62939 0 0
      vertex -1.50536 -0.623539 2
      vertex -1.50536 -0.623539 0
    endloop
  endfacet
  facet normal 0.19509 -0.980785 0
    outer loop
      vertex -0.623539 1.50536 0
      vertex 0 1.62939 2
      vertex -0.623539 1.50536 2
    endloop
  endfacet
  facet normal 0.19509 -0.980785 0
    outer loop
      vertex 0 1.62939 2
      vertex -0.623539 1.50536 0
      vertex 0 1.62939 0
    endloop
  endfacet
  facet normal -0.55557 -0.83147 0
    outer loop
      vertex 0.623539 1.50536 0
      vertex 1.15215 1.15215 2
      vertex 0.623539 1.50536 2
    endloop
  endfacet
  facet normal -0.55557 -0.83147 -0
    outer loop
      vertex 1.15215 1.15215 2
      vertex 0.623539 1.50536 0
      vertex 1.15215 1.15215 0
    endloop
  endfacet
  facet normal -0.83147 -0.55557 0
    outer loop
      vertex 1.50536 0.623539 0
      vertex 1.15215 1.15215 2
      vertex 1.15215 1.15215 0
    endloop
  endfacet
  facet normal -0.83147 -0.55557 0
    outer loop
      vertex 1.15215 1.15215 2
      vertex 1.50536 0.623539 0
      vertex 1.50536 0.623539 2
    endloop
  endfacet
  facet normal -0.19509 -0.980785 0
    outer loop
      vertex 0 1.62939 0
      vertex 0.623539 1.50536 2
      vertex 0 1.62939 2
    endloop
  endfacet
  facet normal -0.19509 -0.980785 -0
    outer loop
      vertex 0.623539 1.50536 2
      vertex 0 1.62939 0
      vertex 0.623539 1.50536 0
    endloop
  endfacet
  facet normal 0.55557 -0.83147 0
    outer loop
      vertex -1.15215 1.15215 0
      vertex -0.623539 1.50536 2
      vertex -1.15215 1.15215 2
    endloop
  endfacet
  facet normal 0.55557 -0.83147 0
    outer loop
      vertex -0.623539 1.50536 2
      vertex -1.15215 1.15215 0
      vertex -0.623539 1.50536 0
    endloop
  endfacet
  facet normal 0.83147 -0.55557 0
    outer loop
      vertex -1.50536 0.623539 2
      vertex -1.15215 1.15215 0
      vertex -1.15215 1.15215 2
    endloop
  endfacet
  facet normal 0.83147 -0.55557 0
    outer loop
      vertex -1.15215 1.15215 0
      vertex -1.50536 0.623539 2
      vertex -1.50536 0.623539 0
    endloop
  endfacet
  facet normal -0.55557 0.83147 0
    outer loop
      vertex 1.15215 -1.15215 0
      vertex 0.623539 -1.50536 2
      vertex 1.15215 -1.15215 2
    endloop
  endfacet
  facet normal -0.55557 0.83147 0
    outer loop
      vertex 0.623539 -1.50536 2
      vertex 1.15215 -1.15215 0
      vertex 0.623539 -1.50536 0
    endloop
  endfacet
  facet normal -0.83147 0.55557 0
    outer loop
      vertex 1.15215 -1.15215 0
      vertex 1.50536 -0.623539 2
      vertex 1.50536 -0.623539 0
    endloop
  endfacet
  facet normal -0.83147 0.55557 0
    outer loop
      vertex 1.50536 -0.623539 2
      vertex 1.15215 -1.15215 0
      vertex 1.15215 -1.15215 2
    endloop
  endfacet
  facet normal -0.980785 0.19509 0
    outer loop
      vertex 1.50536 -0.623539 0
      vertex 1.62939 0 2
      vertex 1.62939 0 0
    endloop
  endfacet
  facet normal -0.980785 0.19509 0
    outer loop
      vertex 1.62939 0 2
      vertex 1.50536 -0.623539 0
      vertex 1.50536 -0.623539 2
    endloop
  endfacet
  facet normal 0.55557 0.83147 -0
    outer loop
      vertex -0.623539 -1.50536 0
      vertex -1.15215 -1.15215 2
      vertex -0.623539 -1.50536 2
    endloop
  endfacet
  facet normal 0.55557 0.83147 0
    outer loop
      vertex -1.15215 -1.15215 2
      vertex -0.623539 -1.50536 0
      vertex -1.15215 -1.15215 0
    endloop
  endfacet
  facet normal 0.83147 0.55557 0
    outer loop
      vertex -1.15215 -1.15215 2
      vertex -1.50536 -0.623539 0
      vertex -1.50536 -0.623539 2
    endloop
  endfacet
  facet normal 0.83147 0.55557 0
    outer loop
      vertex -1.50536 -0.623539 0
      vertex -1.15215 -1.15215 2
      vertex -1.15215 -1.15215 0
    endloop
  endfacet
  facet normal -0.19509 0.980785 0
    outer loop
      vertex 0.623539 -1.50536 0
      vertex 0 -1.62939 2
      vertex 0.623539 -1.50536 2
    endloop
  endfacet
  facet normal -0.19509 0.980785 0
    outer loop
      vertex 0 -1.62939 2
      vertex 0.623539 -1.50536 0
      vertex 0 -1.62939 0
    endloop
  endfacet
  facet normal 0.19509 0.980785 -0
    outer loop
      vertex 0 -1.62939 0
      vertex -0.623539 -1.50536 2
      vertex 0 -1.62939 2
    endloop
  endfacet
  facet normal 0.19509 0.980785 0
    outer loop
      vertex -0.623539 -1.50536 2
      vertex 0 -1.62939 0
      vertex -0.623539 -1.50536 0
    endloop
  endfacet
  facet normal -0.980785 -0.19509 0
    outer loop
      vertex 1.62939 21 0
      vertex 1.50536 21.6235 2
      vertex 1.50536 21.6235 0
    endloop
  endfacet
  facet normal -0.980785 -0.19509 0
    outer loop
      vertex 1.50536 21.6235 2
      vertex 1.62939 21 0
      vertex 1.62939 21 2
    endloop
  endfacet
  facet normal 0.980785 -0.19509 0
    outer loop
      vertex -1.62939 21 2
      vertex -1.50536 21.6235 0
      vertex -1.50536 21.6235 2
    endloop
  endfacet
  facet normal 0.980785 -0.19509 0
    outer loop
      vertex -1.50536 21.6235 0
      vertex -1.62939 21 2
      vertex -1.62939 21 0
    endloop
  endfacet
  facet normal 0.980785 0.19509 0
    outer loop
      vertex -1.50536 20.3765 2
      vertex -1.62939 21 0
      vertex -1.62939 21 2
    endloop
  endfacet
  facet normal 0.980785 0.19509 0
    outer loop
      vertex -1.62939 21 0
      vertex -1.50536 20.3765 2
      vertex -1.50536 20.3765 0
    endloop
  endfacet
  facet normal 0.195093 -0.980785 0
    outer loop
      vertex -0.623539 22.5054 0
      vertex 0 22.6294 2
      vertex -0.623539 22.5054 2
    endloop
  endfacet
  facet normal 0.195093 -0.980785 0
    outer loop
      vertex 0 22.6294 2
      vertex -0.623539 22.5054 0
      vertex 0 22.6294 0
    endloop
  endfacet
  facet normal -0.55557 -0.83147 0
    outer loop
      vertex 0.623539 22.5054 0
      vertex 1.15215 22.1521 2
      vertex 0.623539 22.5054 2
    endloop
  endfacet
  facet normal -0.55557 -0.83147 -0
    outer loop
      vertex 1.15215 22.1521 2
      vertex 0.623539 22.5054 0
      vertex 1.15215 22.1521 0
    endloop
  endfacet
  facet normal -0.831469 -0.555571 0
    outer loop
      vertex 1.50536 21.6235 0
      vertex 1.15215 22.1521 2
      vertex 1.15215 22.1521 0
    endloop
  endfacet
  facet normal -0.831469 -0.555571 0
    outer loop
      vertex 1.15215 22.1521 2
      vertex 1.50536 21.6235 0
      vertex 1.50536 21.6235 2
    endloop
  endfacet
  facet normal -0.195093 -0.980785 0
    outer loop
      vertex 0 22.6294 0
      vertex 0.623539 22.5054 2
      vertex 0 22.6294 2
    endloop
  endfacet
  facet normal -0.195093 -0.980785 -0
    outer loop
      vertex 0.623539 22.5054 2
      vertex 0 22.6294 0
      vertex 0.623539 22.5054 0
    endloop
  endfacet
  facet normal 0.55557 -0.83147 0
    outer loop
      vertex -1.15215 22.1521 0
      vertex -0.623539 22.5054 2
      vertex -1.15215 22.1521 2
    endloop
  endfacet
  facet normal 0.55557 -0.83147 0
    outer loop
      vertex -0.623539 22.5054 2
      vertex -1.15215 22.1521 0
      vertex -0.623539 22.5054 0
    endloop
  endfacet
  facet normal 0.831469 -0.555571 0
    outer loop
      vertex -1.50536 21.6235 2
      vertex -1.15215 22.1521 0
      vertex -1.15215 22.1521 2
    endloop
  endfacet
  facet normal 0.831469 -0.555571 0
    outer loop
      vertex -1.15215 22.1521 0
      vertex -1.50536 21.6235 2
      vertex -1.50536 21.6235 0
    endloop
  endfacet
  facet normal -0.55557 0.83147 0
    outer loop
      vertex 1.15215 19.8479 0
      vertex 0.623539 19.4946 2
      vertex 1.15215 19.8479 2
    endloop
  endfacet
  facet normal -0.55557 0.83147 0
    outer loop
      vertex 0.623539 19.4946 2
      vertex 1.15215 19.8479 0
      vertex 0.623539 19.4946 0
    endloop
  endfacet
  facet normal -0.831469 0.555571 0
    outer loop
      vertex 1.15215 19.8479 0
      vertex 1.50536 20.3765 2
      vertex 1.50536 20.3765 0
    endloop
  endfacet
  facet normal -0.831469 0.555571 0
    outer loop
      vertex 1.50536 20.3765 2
      vertex 1.15215 19.8479 0
      vertex 1.15215 19.8479 2
    endloop
  endfacet
  facet normal -0.980785 0.19509 0
    outer loop
      vertex 1.50536 20.3765 0
      vertex 1.62939 21 2
      vertex 1.62939 21 0
    endloop
  endfacet
  facet normal -0.980785 0.19509 0
    outer loop
      vertex 1.62939 21 2
      vertex 1.50536 20.3765 0
      vertex 1.50536 20.3765 2
    endloop
  endfacet
  facet normal 0.55557 0.83147 -0
    outer loop
      vertex -0.623539 19.4946 0
      vertex -1.15215 19.8479 2
      vertex -0.623539 19.4946 2
    endloop
  endfacet
  facet normal 0.55557 0.83147 0
    outer loop
      vertex -1.15215 19.8479 2
      vertex -0.623539 19.4946 0
      vertex -1.15215 19.8479 0
    endloop
  endfacet
  facet normal 0.831469 0.555571 0
    outer loop
      vertex -1.15215 19.8479 2
      vertex -1.50536 20.3765 0
      vertex -1.50536 20.3765 2
    endloop
  endfacet
  facet normal 0.831469 0.555571 0
    outer loop
      vertex -1.50536 20.3765 0
      vertex -1.15215 19.8479 2
      vertex -1.15215 19.8479 0
    endloop
  endfacet
  facet normal -0.195093 0.980785 0
    outer loop
      vertex 0.623539 19.4946 0
      vertex 0 19.3706 2
      vertex 0.623539 19.4946 2
    endloop
  endfacet
  facet normal -0.195093 0.980785 0
    outer loop
      vertex 0 19.3706 2
      vertex 0.623539 19.4946 0
      vertex 0 19.3706 0
    endloop
  endfacet
  facet normal 0.195093 0.980785 -0
    outer loop
      vertex 0 19.3706 0
      vertex -0.623539 19.4946 2
      vertex 0 19.3706 2
    endloop
  endfacet
  facet normal 0.195093 0.980785 0
    outer loop
      vertex -0.623539 19.4946 2
      vertex 0 19.3706 0
      vertex -0.623539 19.4946 0
    endloop
  endfacet
  facet normal -0 0 1
    outer loop
      vertex -21.5 3 2
      vertex -20.0858 0 2
      vertex -3 3 2
    endloop
  endfacet
  facet normal 0 0 1
    outer loop
      vertex -20.0858 0 2
      vertex -21.5 3 2
      vertex -21.5 1.41421 2
    endloop
  endfacet
  facet normal 0 0 1
    outer loop
      vertex -3 24 2
      vertex -20.0858 21 2
      vertex -3 18 2
    endloop
  endfacet
  facet normal -0 0 1
    outer loop
      vertex -21.5 24 2
      vertex -20.0858 21 2
      vertex -3 24 2
    endloop
  endfacet
  facet normal 0 0 1
    outer loop
      vertex -20.0858 21 2
      vertex -21.5 24 2
      vertex -21.5 22.4142 2
    endloop
  endfacet
  facet normal 0 0 1
    outer loop
      vertex -21.5 18 2
      vertex -20.0858 21 2
      vertex -21.5 19.5858 2
    endloop
  endfacet
  facet normal 0 0 1
    outer loop
      vertex -20.0858 21 2
      vertex -21.5 18 2
      vertex -3 18 2
    endloop
  endfacet
  facet normal -0 0 1
    outer loop
      vertex 0.623539 19.4946 2
      vertex 3 18 2
      vertex 1.15215 19.8479 2
    endloop
  endfacet
  facet normal 0 0 1
    outer loop
      vertex 3 3 2
      vertex 1.50536 0.623539 2
      vertex 1.62939 0 2
    endloop
  endfacet
  facet normal -0 0 1
    outer loop
      vertex 0 19.3706 2
      vertex 3 18 2
      vertex 0.623539 19.4946 2
    endloop
  endfacet
  facet normal 0 0 1
    outer loop
      vertex 3 3 2
      vertex 1.15215 1.15215 2
      vertex 1.50536 0.623539 2
    endloop
  endfacet
  facet normal 0 0 1
    outer loop
      vertex 3 18 2
      vertex -3 18 2
      vertex 3 3 2
    endloop
  endfacet
  facet normal 0 0 1
    outer loop
      vertex 3 3 2
      vertex 0.623539 1.50536 2
      vertex 1.15215 1.15215 2
    endloop
  endfacet
  facet normal 0 0 1
    outer loop
      vertex 3 18 2
      vertex 0 19.3706 2
      vertex -3 18 2
    endloop
  endfacet
  facet normal 0 0 1
    outer loop
      vertex -3 3 2
      vertex 3 3 2
      vertex -3 18 2
    endloop
  endfacet
  facet normal 0 0 1
    outer loop
      vertex -3 18 2
      vertex 0 19.3706 2
      vertex -0.623539 19.4946 2
    endloop
  endfacet
  facet normal 0 -0 1
    outer loop
      vertex 0 1.62939 2
      vertex 3 3 2
      vertex -3 3 2
    endloop
  endfacet
  facet normal 0 0 1
    outer loop
      vertex -3 18 2
      vertex -0.623539 19.4946 2
      vertex -1.15215 19.8479 2
    endloop
  endfacet
  facet normal 0 0 1
    outer loop
      vertex 3 3 2
      vertex 0 1.62939 2
      vertex 0.623539 1.50536 2
    endloop
  endfacet
  facet normal 0 0 1
    outer loop
      vertex -3 18 2
      vertex -1.15215 19.8479 2
      vertex -1.50536 20.3765 2
    endloop
  endfacet
  facet normal 0 0 1
    outer loop
      vertex 0 1.62939 2
      vertex -3 3 2
      vertex -0.623539 1.50536 2
    endloop
  endfacet
  facet normal 0 0 1
    outer loop
      vertex -3 18 2
      vertex -1.50536 20.3765 2
      vertex -1.62939 21 2
    endloop
  endfacet
  facet normal 0 0 1
    outer loop
      vertex -0.623539 1.50536 2
      vertex -3 3 2
      vertex -1.15215 1.15215 2
    endloop
  endfacet
  facet normal -0 0 1
    outer loop
      vertex 0 41.0858 2
      vertex 3 24 2
      vertex 3 42.5 2
    endloop
  endfacet
  facet normal 0 -0 1
    outer loop
      vertex 1.62939 21 2
      vertex 3 24 2
      vertex 1.50536 21.6235 2
    endloop
  endfacet
  facet normal -0 0 1
    outer loop
      vertex 1.50536 20.3765 2
      vertex 3 18 2
      vertex 1.62939 21 2
    endloop
  endfacet
  facet normal 0 0 1
    outer loop
      vertex 3 24 2
      vertex 1.62939 21 2
      vertex 3 18 2
    endloop
  endfacet
  facet normal 0 0 1
    outer loop
      vertex 0 41.0858 2
      vertex 3 42.5 2
      vertex 1.41421 42.5 2
    endloop
  endfacet
  facet normal 0 0 1
    outer loop
      vertex 3 24 2
      vertex 1.15215 22.1521 2
      vertex 1.50536 21.6235 2
    endloop
  endfacet
  facet normal 0 0 1
    outer loop
      vertex -3 24 2
      vertex 3 24 2
      vertex 0 41.0858 2
    endloop
  endfacet
  facet normal 0 0 1
    outer loop
      vertex 3 24 2
      vertex 0.623539 22.5054 2
      vertex 1.15215 22.1521 2
    endloop
  endfacet
  facet normal 0 -0 1
    outer loop
      vertex 0 22.6294 2
      vertex 3 24 2
      vertex -3 24 2
    endloop
  endfacet
  facet normal 0 0 1
    outer loop
      vertex 3 24 2
      vertex 0 22.6294 2
      vertex 0.623539 22.5054 2
    endloop
  endfacet
  facet normal 0 0 1
    outer loop
      vertex 0 22.6294 2
      vertex -3 24 2
      vertex -0.623539 22.5054 2
    endloop
  endfacet
  facet normal -0 0 1
    outer loop
      vertex -3 42.5 2
      vertex 0 41.0858 2
      vertex -1.41421 42.5 2
    endloop
  endfacet
  facet normal 0 0 1
    outer loop
      vertex -0.623539 22.5054 2
      vertex -3 24 2
      vertex -1.15215 22.1521 2
    endloop
  endfacet
  facet normal 0 0 1
    outer loop
      vertex -1.15215 22.1521 2
      vertex -3 24 2
      vertex -1.50536 21.6235 2
    endloop
  endfacet
  facet normal 0 0 1
    outer loop
      vertex -1.50536 21.6235 2
      vertex -3 24 2
      vertex -1.62939 21 2
    endloop
  endfacet
  facet normal 0 0 1
    outer loop
      vertex 0 41.0858 2
      vertex -3 42.5 2
      vertex -3 24 2
    endloop
  endfacet
  facet normal 0 0 1
    outer loop
      vertex 21.5 3 2
      vertex 20.0858 0 2
      vertex 21.5 1.41421 2
    endloop
  endfacet
  facet normal 0 -0 1
    outer loop
      vertex 20.0858 0 2
      vertex 21.5 3 2
      vertex 3 3 2
    endloop
  endfacet
  facet normal 0 0 1
    outer loop
      vertex 21.5 24 2
      vertex 20.0858 21 2
      vertex 21.5 22.4142 2
    endloop
  endfacet
  facet normal 0 -0 1
    outer loop
      vertex 20.0858 21 2
      vertex 21.5 24 2
      vertex 3 24 2
    endloop
  endfacet
  facet normal 0 0 1
    outer loop
      vertex 20.0858 21 2
      vertex 21.5 18 2
      vertex 21.5 19.5858 2
    endloop
  endfacet
  facet normal 0 0 1
    outer loop
      vertex 3 18 2
      vertex 20.0858 21 2
      vertex 3 24 2
    endloop
  endfacet
  facet normal 0 0 1
    outer loop
      vertex 20.0858 21 2
      vertex 3 18 2
      vertex 21.5 18 2
    endloop
  endfacet
  facet normal -0 0 1
    outer loop
      vertex 20.0858 0 2
      vertex 25.5 -3 2
      vertex 25.5 0 2
    endloop
  endfacet
  facet normal 0 0 1
    outer loop
      vertex 1.50536 -0.623539 2
      vertex 20.0858 0 2
      vertex 3 3 2
    endloop
  endfacet
  facet normal -0 0 1
    outer loop
      vertex 1.15215 19.8479 2
      vertex 3 18 2
      vertex 1.50536 20.3765 2
    endloop
  endfacet
  facet normal 0 0 1
    outer loop
      vertex 1.50536 -0.623539 2
      vertex 3 3 2
      vertex 1.62939 0 2
    endloop
  endfacet
  facet normal 0 0 1
    outer loop
      vertex 1.15215 -1.15215 2
      vertex 20.0858 0 2
      vertex 1.50536 -0.623539 2
    endloop
  endfacet
  facet normal 0 0 1
    outer loop
      vertex 0.623539 -1.50536 2
      vertex 20.0858 0 2
      vertex 1.15215 -1.15215 2
    endloop
  endfacet
  facet normal 0 0 1
    outer loop
      vertex 20.0858 0 2
      vertex 0.623539 -1.50536 2
      vertex 25.5 -3 2
    endloop
  endfacet
  facet normal -0 0 1
    outer loop
      vertex 0 -1.62939 2
      vertex 25.5 -3 2
      vertex 0.623539 -1.50536 2
    endloop
  endfacet
  facet normal 0 0 1
    outer loop
      vertex -3 18 2
      vertex -1.62939 21 2
      vertex -3 24 2
    endloop
  endfacet
  facet normal 0 0 1
    outer loop
      vertex -1.15215 1.15215 2
      vertex -3 3 2
      vertex -1.50536 0.623539 2
    endloop
  endfacet
  facet normal 0 0 1
    outer loop
      vertex -1.50536 0.623539 2
      vertex -3 3 2
      vertex -1.62939 0 2
    endloop
  endfacet
  facet normal 0 0 1
    outer loop
      vertex -3 3 2
      vertex -1.50536 -0.623539 2
      vertex -1.62939 0 2
    endloop
  endfacet
  facet normal -0 0 1
    outer loop
      vertex -20.0858 0 2
      vertex -1.50536 -0.623539 2
      vertex -3 3 2
    endloop
  endfacet
  facet normal 0 0 1
    outer loop
      vertex -20.0858 0 2
      vertex -1.15215 -1.15215 2
      vertex -1.50536 -0.623539 2
    endloop
  endfacet
  facet normal 0 0 1
    outer loop
      vertex -20.0858 0 2
      vertex -0.623539 -1.50536 2
      vertex -1.15215 -1.15215 2
    endloop
  endfacet
  facet normal 0 0 1
    outer loop
      vertex -25.5 -3 2
      vertex -0.623539 -1.50536 2
      vertex -20.0858 0 2
    endloop
  endfacet
  facet normal 0 0 1
    outer loop
      vertex -25.5 -3 2
      vertex -20.0858 0 2
      vertex -25.5 0 2
    endloop
  endfacet
  facet normal 0 0 1
    outer loop
      vertex 0 -1.62939 2
      vertex -25.5 -3 2
      vertex 25.5 -3 2
    endloop
  endfacet
  facet normal 0 0 1
    outer loop
      vertex -0.623539 -1.50536 2
      vertex -25.5 -3 2
      vertex 0 -1.62939 2
    endloop
  endfacet
  facet normal 0 -1 0
    outer loop
      vertex -25.5 -3 0
      vertex 25.5 -3 2
      vertex -25.5 -3 2
    endloop
  endfacet
  facet normal 0 -1 -0
    outer loop
      vertex 25.5 -3 2
      vertex -25.5 -3 0
      vertex 25.5 -3 0
    endloop
  endfacet
  facet normal 0 1 -0
    outer loop
      vertex -3 3 0
      vertex -21.5 3 2
      vertex -3 3 2
    endloop
  endfacet
  facet normal 0 1 0
    outer loop
      vertex -21.5 3 2
      vertex -3 3 0
      vertex -21.5 3 0
    endloop
  endfacet
  facet normal 0 1 -0
    outer loop
      vertex 21.5 3 0
      vertex 3 3 2
      vertex 21.5 3 2
    endloop
  endfacet
  facet normal 0 1 0
    outer loop
      vertex 3 3 2
      vertex 21.5 3 0
      vertex 3 3 0
    endloop
  endfacet
  facet normal 0 1 -0
    outer loop
      vertex 21.5 24 0
      vertex 3 24 2
      vertex 21.5 24 2
    endloop
  endfacet
  facet normal 0 1 0
    outer loop
      vertex 3 24 2
      vertex 21.5 24 0
      vertex 3 24 0
    endloop
  endfacet
  facet normal 0 1 -0
    outer loop
      vertex -3 24 0
      vertex -21.5 24 2
      vertex -3 24 2
    endloop
  endfacet
  facet normal 0 1 0
    outer loop
      vertex -21.5 24 2
      vertex -3 24 0
      vertex -21.5 24 0
    endloop
  endfacet
  facet normal 0 -1 0
    outer loop
      vertex -21.5 18 0
      vertex -3 18 2
      vertex -21.5 18 2
    endloop
  endfacet
  facet normal 0 -1 -0
    outer loop
      vertex -3 18 2
      vertex -21.5 18 0
      vertex -3 18 0
    endloop
  endfacet
  facet normal 0 -1 0
    outer loop
      vertex 3 18 0
      vertex 21.5 18 2
      vertex 3 18 2
    endloop
  endfacet
  facet normal 0 -1 -0
    outer loop
      vertex 21.5 18 2
      vertex 3 18 0
      vertex 21.5 18 0
    endloop
  endfacet
  facet normal -1 0 0
    outer loop
      vertex -3 3 0
      vertex -3 18 2
      vertex -3 18 0
    endloop
  endfacet
  facet normal -1 -0 0
    outer loop
      vertex -3 18 2
      vertex -3 3 0
      vertex -3 3 2
    endloop
  endfacet
  facet normal -1 0 0
    outer loop
      vertex -3 24 0
      vertex -3 42.5 2
      vertex -3 42.5 0
    endloop
  endfacet
  facet normal -1 -0 0
    outer loop
      vertex -3 42.5 2
      vertex -3 24 0
      vertex -3 24 2
    endloop
  endfacet
  facet normal 1 -0 0
    outer loop
      vertex 3 3 2
      vertex 3 18 0
      vertex 3 18 2
    endloop
  endfacet
  facet normal 1 0 0
    outer loop
      vertex 3 18 0
      vertex 3 3 2
      vertex 3 3 0
    endloop
  endfacet
  facet normal 1 -0 0
    outer loop
      vertex 3 24 2
      vertex 3 42.5 0
      vertex 3 42.5 2
    endloop
  endfacet
  facet normal 1 0 0
    outer loop
      vertex 3 42.5 0
      vertex 3 24 2
      vertex 3 24 0
    endloop
  endfacet
endsolid OpenSCAD_Model
